<svg width="49" height="49" viewBox="0 0 49 49" fill="none" xmlns="http://www.w3.org/2000/svg">
<rect x="0.570312" y="0.5" width="48" height="48" rx="4" fill="#ED6BA6"/>
<mask id="mask0_17_151" style="mask-type:alpha" maskUnits="userSpaceOnUse" x="12" y="12" width="25" height="25">
<rect x="12.5005" y="12.0721" width="24" height="24" fill="#D9D9D9"/>
</mask>
<g mask="url(#mask0_17_151)">
<path d="M12.5005 30.0721V28.4971C12.5005 27.7805 12.8672 27.1971 13.6005 26.7471C14.3338 26.2971 15.3005 26.0721 16.5005 26.0721C16.7172 26.0721 16.9255 26.0761 17.1255 26.0841C17.3255 26.0928 17.5172 26.1138 17.7005 26.1471C17.4672 26.4971 17.2922 26.8638 17.1755 27.2471C17.0588 27.6305 17.0005 28.0305 17.0005 28.4471V30.0721H12.5005ZM18.5005 30.0721V28.4471C18.5005 27.9138 18.6465 27.4261 18.9385 26.9841C19.2298 26.5428 19.6422 26.1555 20.1755 25.8221C20.7088 25.4888 21.3465 25.2388 22.0885 25.0721C22.8298 24.9055 23.6338 24.8221 24.5005 24.8221C25.3838 24.8221 26.1965 24.9055 26.9385 25.0721C27.6798 25.2388 28.3172 25.4888 28.8505 25.8221C29.3838 26.1555 29.7922 26.5428 30.0755 26.9841C30.3588 27.4261 30.5005 27.9138 30.5005 28.4471V30.0721H18.5005ZM32.0005 30.0721V28.4471C32.0005 28.0138 31.9462 27.6055 31.8375 27.2221C31.7295 26.8388 31.5672 26.4805 31.3505 26.1471C31.5338 26.1138 31.7215 26.0928 31.9135 26.0841C32.1048 26.0761 32.3005 26.0721 32.5005 26.0721C33.7005 26.0721 34.6672 26.2928 35.4005 26.7341C36.1338 27.1761 36.5005 27.7638 36.5005 28.4971V30.0721H32.0005ZM16.5005 25.0721C15.9505 25.0721 15.4798 24.8761 15.0885 24.4841C14.6965 24.0928 14.5005 23.6221 14.5005 23.0721C14.5005 22.5055 14.6965 22.0305 15.0885 21.6471C15.4798 21.2638 15.9505 21.0721 16.5005 21.0721C17.0672 21.0721 17.5422 21.2638 17.9255 21.6471C18.3088 22.0305 18.5005 22.5055 18.5005 23.0721C18.5005 23.6221 18.3088 24.0928 17.9255 24.4841C17.5422 24.8761 17.0672 25.0721 16.5005 25.0721ZM32.5005 25.0721C31.9505 25.0721 31.4795 24.8761 31.0875 24.4841C30.6962 24.0928 30.5005 23.6221 30.5005 23.0721C30.5005 22.5055 30.6962 22.0305 31.0875 21.6471C31.4795 21.2638 31.9505 21.0721 32.5005 21.0721C33.0672 21.0721 33.5422 21.2638 33.9255 21.6471C34.3088 22.0305 34.5005 22.5055 34.5005 23.0721C34.5005 23.6221 34.3088 24.0928 33.9255 24.4841C33.5422 24.8761 33.0672 25.0721 32.5005 25.0721ZM24.5005 24.0721C23.6672 24.0721 22.9588 23.7805 22.3755 23.1971C21.7922 22.6138 21.5005 21.9055 21.5005 21.0721C21.5005 20.2221 21.7922 19.5095 22.3755 18.9341C22.9588 18.3595 23.6672 18.0721 24.5005 18.0721C25.3505 18.0721 26.0628 18.3595 26.6375 18.9341C27.2128 19.5095 27.5005 20.2221 27.5005 21.0721C27.5005 21.9055 27.2128 22.6138 26.6375 23.1971C26.0628 23.7805 25.3505 24.0721 24.5005 24.0721Z" fill="white"/>
</g>
</svg>
