<svg width="200" height="38" viewBox="0 0 200 38" fill="none" xmlns="http://www.w3.org/2000/svg">
<path d="M4.41655 29.5495C3.68242 29.5512 2.96103 29.3578 2.32606 28.9894C1.6911 28.6209 1.16532 28.0905 0.802444 27.4523C0.445122 26.8186 0.266917 26.0997 0.286916 25.3725C0.306916 24.6453 0.524366 23.9372 0.915976 23.3241L8.35864 11.6364C8.73956 11.0082 9.28039 10.4925 9.92588 10.1417C10.5714 9.791 11.2984 9.61789 12.0327 9.64008C12.7664 9.65766 13.4823 9.86987 14.107 10.255C14.7318 10.6401 15.243 11.1843 15.5884 11.8319C16.2822 13.1439 16.1955 14.7223 15.3645 15.9538L7.92658 27.6415C7.5494 28.2293 7.02994 28.7123 6.41636 29.0459C5.80277 29.3794 5.11492 29.5527 4.41655 29.5495Z" fill="white"/>
<path d="M17.1825 29.5492C15.6813 29.5492 14.3 28.7466 13.5747 27.4567C13.2182 26.8248 13.0404 26.1077 13.0604 25.3824C13.0804 24.6571 13.2974 23.9509 13.6882 23.3395L21.1167 11.6786C21.492 11.0417 22.0309 10.5167 22.6775 10.1582C23.3241 9.79966 24.0548 9.62067 24.7939 9.63975C26.3076 9.67286 27.6795 10.5196 28.3733 11.8442C29.0623 13.1688 28.9614 14.7567 28.1052 15.985L20.6783 27.6459C20.3023 28.2312 19.7849 28.7124 19.174 29.045C18.563 29.3776 17.8781 29.551 17.1825 29.5492Z" fill="white"/>
<path d="M29.6635 29.647C31.7797 29.647 33.4952 27.9675 33.4952 25.8956C33.4952 23.8238 31.7797 22.1443 29.6635 22.1443C27.5473 22.1443 25.8318 23.8238 25.8318 25.8956C25.8318 27.9675 27.5473 29.647 29.6635 29.647Z" fill="white"/>
<path d="M196.123 22.3619C197.281 22.3619 197.973 23.185 197.973 24.5332V29.1534H199.545V24.4276C199.545 22.1348 198.465 20.8055 196.434 20.8055C195.639 20.8055 194.378 21.0231 193.626 22.4849C193.451 22.0537 193.163 21.678 192.791 21.3976C192.42 21.1171 191.98 20.9425 191.518 20.8923C191.226 20.8389 190.93 20.8215 190.634 20.8402C189.988 20.8923 188.837 21.2944 188.406 22.2058V20.9806H186.833V29.1534H188.406V24.743C188.406 23.0273 189.529 22.3619 190.653 22.3619C191.707 22.3619 192.399 23.1677 192.399 24.5159V29.1534H193.963V24.743C193.963 23.3774 194.783 22.3461 196.123 22.3619ZM181.057 27.7879C181.776 27.8036 182.47 27.5167 182.973 26.9963C183.477 26.4759 183.745 25.7679 183.718 25.041C183.718 23.3947 182.507 22.3619 181.057 22.3619C179.605 22.3619 178.395 23.3947 178.395 25.041C178.367 25.7663 178.635 26.4728 179.136 26.9916C179.638 27.5119 180.328 27.8005 181.044 27.7879H181.057ZM181.057 29.3206C178.758 29.3206 176.839 27.6223 176.839 25.0315C176.839 22.4407 178.758 20.7961 181.057 20.7961C183.356 20.7961 185.291 22.4407 185.291 25.0315C185.291 27.6223 183.345 29.3285 181.046 29.3285L181.057 29.3206ZM168.742 25.0315L168.726 25.041C168.726 22.4502 170.695 20.8055 173.01 20.7961C173.592 20.7848 174.169 20.8958 174.705 21.1218C175.241 21.3478 175.723 21.6838 176.121 22.108L174.929 23.1235C174.676 22.8749 174.376 22.6789 174.047 22.5468C173.717 22.4147 173.365 22.3492 173.01 22.354C171.56 22.354 170.298 23.3869 170.298 25.0315C170.298 26.1432 170.959 27.1445 171.973 27.5703C172.987 27.996 174.153 27.7595 174.929 26.9742L176.139 27.9897C175.74 28.4183 175.255 28.7583 174.716 28.9876C174.177 29.2168 173.596 29.3303 173.01 29.3206C170.713 29.3206 168.742 27.6223 168.742 25.0315ZM163.707 27.5845C163.705 27.4416 163.732 27.2998 163.785 27.1671C163.838 27.0345 163.917 26.9136 164.017 26.8114C164.116 26.7092 164.235 26.6276 164.367 26.5714C164.498 26.5152 164.639 26.4855 164.782 26.4838C164.925 26.4855 165.066 26.5152 165.198 26.5714C165.329 26.6276 165.448 26.7092 165.548 26.8114C165.648 26.9136 165.727 27.0345 165.78 27.1671C165.833 27.2998 165.859 27.4416 165.858 27.5845C165.844 27.8612 165.725 28.1221 165.525 28.3141C165.325 28.506 165.059 28.6144 164.782 28.6173C164.505 28.6144 164.24 28.506 164.04 28.3141C163.84 28.1221 163.721 27.8612 163.707 27.5845Z" fill="white"/>
<path fill-rule="evenodd" clip-rule="evenodd" d="M168.009 10.5906H162.409L158.484 20.7093L154.58 10.5906H148.981L155.788 26.58L151.554 37.1513H157.113L168.009 10.5906ZM133.955 19.4841C133.955 22.0386 136.188 23.7195 138.381 23.7195C140.537 23.7195 142.655 22.1553 142.655 19.4825C142.655 16.8097 140.537 15.2439 138.381 15.2439C136.188 15.2439 133.955 16.928 133.955 19.4841ZM142.655 28.4123V26.3892C141.519 28.108 138.87 28.7576 137.511 28.7576C133.011 28.7576 128.509 25.2097 128.509 19.4825C128.509 13.7569 133.009 10.209 137.511 10.209C138.645 10.209 141.294 10.5874 142.655 12.5743V10.5969H147.874V28.4154L142.655 28.4123ZM127.023 28.4123H121.804V26.1984C120.932 27.8383 118.818 28.7939 116.623 28.7939C112.083 28.7939 108.073 25.1687 108.073 19.555C108.073 13.8358 112.083 10.2058 116.623 10.2058C118.814 10.2058 120.935 11.1204 121.804 12.7619V0.883423H127.023V28.4123ZM121.691 19.4431C121.691 16.7719 119.762 15.2061 117.607 15.2061C115.374 15.2061 113.519 16.8854 113.519 19.4431C113.519 22.0828 115.374 23.7542 117.605 23.7542C119.802 23.7574 121.691 22.0008 121.691 19.4431ZM95.1682 18.9826C95.1682 16.2736 96.5684 15.3574 98.4212 15.3574C100.198 15.3574 101.485 16.5401 101.485 18.9054V28.4091H106.742V17.7622C106.742 12.6878 104.244 10.2058 100.272 10.2058C98.1926 10.2058 96.1127 11.3885 95.1666 13.1829V10.5906H89.9126V28.4091H95.1682V18.9826ZM79.2374 28.715C74.2452 28.715 70.0808 25.052 70.0808 19.4415C70.0808 13.8279 74.2405 10.2011 79.2374 10.2011C84.2344 10.2011 88.4304 13.8279 88.4304 19.4415C88.4304 25.0551 84.2297 28.715 79.2374 28.715ZM79.2374 23.5272C81.4292 23.5272 83.2473 21.9219 83.2473 19.4431C83.2473 17.0384 81.4308 15.3969 79.2374 15.3969C78.7093 15.3886 78.185 15.4879 77.6965 15.6888C77.208 15.8897 76.7655 16.1879 76.396 16.5653C76.0243 16.9447 75.7327 17.395 75.5384 17.8894C75.3442 18.3838 75.2514 18.9121 75.2654 19.4431C75.267 21.9251 77.0819 23.5272 79.2374 23.5272ZM60.656 15.359C62.206 15.359 63.5684 16.5811 63.5684 18.907V28.4123H68.7878V18.292C68.7878 12.9117 66.1718 10.2027 61.979 10.2027C60.7333 10.2027 58.387 10.5811 56.684 13.369C55.7 11.3081 53.8094 10.2389 51.0153 10.2389C50.0451 10.234 49.0941 10.5086 48.2759 11.0298C47.4577 11.5511 46.807 12.2969 46.4014 13.1782V10.5922H41.1411V28.4107H46.3967V18.9826C46.3967 16.2736 47.8726 15.3574 49.4605 15.3574C50.9743 15.3574 52.3335 16.5401 52.3729 18.7918V28.4107H57.6301V18.9826C57.6301 16.3919 58.9925 15.359 60.656 15.359Z" fill="white"/>
</svg>
