<svg width="160" height="42" viewBox="0 0 160 42" fill="none" xmlns="http://www.w3.org/2000/svg">
<path d="M51.0171 32.6103L53.0023 27.986C55.1477 29.5917 57.9974 30.4266 60.8152 30.4266C62.8965 30.4266 64.2093 29.6238 64.2093 28.4035C64.1773 24.9994 51.7535 27.6648 51.6575 19.1227C51.6255 14.7874 55.4679 11.4476 60.9112 11.4476C64.1452 11.4476 67.3792 12.2504 69.6847 14.0809L67.8275 18.8015C65.7142 17.4528 63.0886 16.4894 60.591 16.4894C58.894 16.4894 57.7733 17.2922 57.7733 18.3198C57.8053 21.6596 70.3251 19.8292 70.4532 27.986C70.4532 32.4176 66.7068 35.5326 61.3275 35.5326C57.389 35.5326 53.7708 34.6013 51.0171 32.6103Z" fill="white"/>
<path d="M127.193 26.3161C126.2 28.0502 124.343 29.2384 122.197 29.2384C119.027 29.2384 116.466 26.6693 116.466 23.4901C116.466 20.3109 119.027 17.7418 122.197 17.7418C124.343 17.7418 126.2 18.93 127.193 20.6641L132.668 17.6133C130.619 13.9524 126.68 11.4476 122.197 11.4476C115.569 11.4476 110.19 16.8426 110.19 23.4901C110.19 30.1376 115.569 35.5326 122.197 35.5326C126.712 35.5326 130.619 33.0599 132.668 29.3669L127.193 26.3161Z" fill="white"/>
<path d="M80.0593 1.46033H73.207V35.0831H80.0593V1.46033Z" fill="white"/>
<path d="M135.358 1.46033V35.0831H142.21V24.9995L150.343 35.0831H159.116L148.774 23.1048L158.348 11.9293H149.959L142.21 21.2101V1.46033H135.358Z" fill="white"/>
<path d="M100.424 26.3803C99.4313 28.0181 97.382 29.2384 95.0766 29.2384C91.9066 29.2384 89.345 26.6693 89.345 23.4901C89.345 20.3109 91.9066 17.7418 95.0766 17.7418C97.382 17.7418 99.4313 19.0263 100.424 20.6962V26.3803ZM100.424 11.9293V14.6589C99.3032 12.7642 96.5175 11.4476 93.6037 11.4476C87.5839 11.4476 82.845 16.7784 82.845 23.458C82.845 30.1376 87.5839 35.5326 93.6037 35.5326C96.5175 35.5326 99.3032 34.216 100.424 32.3213V35.0509H107.276V11.9293H100.424Z" fill="white"/>
<path d="M8.65467 26.3482C8.65467 28.6925 6.76549 30.5872 4.42804 30.5872C2.09059 30.5872 0.201416 28.6925 0.201416 26.3482C0.201416 24.0039 2.09059 22.1093 4.42804 22.1093H8.65467V26.3482Z" fill="white"/>
<path d="M10.7678 26.3482C10.7678 24.0039 12.657 22.1093 14.9944 22.1093C17.3319 22.1093 19.2211 24.0039 19.2211 26.3482V36.9456C19.2211 39.2899 17.3319 41.1846 14.9944 41.1846C12.657 41.1846 10.7678 39.2899 10.7678 36.9456V26.3482Z" fill="white"/>
<path d="M14.9947 9.3281C12.6572 9.3281 10.7681 7.43341 10.7681 5.08913C10.7681 2.74485 12.6572 0.850159 14.9947 0.850159C17.3321 0.850159 19.2213 2.74485 19.2213 5.08913V9.3281H14.9947Z" fill="white"/>
<path d="M14.9949 11.4797C17.3323 11.4797 19.2215 13.3744 19.2215 15.7187C19.2215 18.063 17.3323 19.9577 14.9949 19.9577H4.3963C2.05885 19.9577 0.169678 18.063 0.169678 15.7187C0.169678 13.3744 2.05885 11.4797 4.3963 11.4797H14.9949Z" fill="white"/>
<path d="M31.9333 15.7186C31.9333 13.3744 33.8225 11.4797 36.16 11.4797C38.4974 11.4797 40.3866 13.3744 40.3866 15.7186C40.3866 18.0629 38.4974 19.9576 36.16 19.9576H31.9333V15.7186Z" fill="white"/>
<path d="M29.82 15.7187C29.82 18.0629 27.9308 19.9576 25.5933 19.9576C23.2559 19.9576 21.3667 18.0629 21.3667 15.7187V5.08913C21.3667 2.74485 23.2559 0.850159 25.5933 0.850159C27.9308 0.850159 29.82 2.74485 29.82 5.08913V15.7187Z" fill="white"/>
<path d="M25.5933 32.7067C27.9308 32.7067 29.82 34.6014 29.82 36.9457C29.82 39.29 27.9308 41.1847 25.5933 41.1847C23.2559 41.1847 21.3667 39.29 21.3667 36.9457V32.7067H25.5933Z" fill="white"/>
<path d="M25.5933 30.5872C23.2559 30.5872 21.3667 28.6925 21.3667 26.3482C21.3667 24.0039 23.2559 22.1093 25.5933 22.1093H36.1919C38.5294 22.1093 40.4185 24.0039 40.4185 26.3482C40.4185 28.6925 38.5294 30.5872 36.1919 30.5872H25.5933Z" fill="white"/>
</svg>
