<svg width="130" height="55" viewBox="0 0 130 55" fill="none" xmlns="http://www.w3.org/2000/svg">
<path fill-rule="evenodd" clip-rule="evenodd" d="M129.661 27.9192C129.661 18.685 125.2 11.3986 116.674 11.3986C108.111 11.3986 102.93 18.6849 102.93 27.847C102.93 38.7045 109.046 44.1873 117.825 44.1873C122.106 44.1873 125.344 43.2134 127.791 41.8427V34.6284C125.344 35.8549 122.538 36.6124 118.976 36.6124C115.486 36.6124 112.392 35.3859 111.996 31.1295H129.589C129.589 30.6606 129.661 28.7849 129.661 27.9192ZM111.889 24.4924C111.889 20.4164 114.371 18.721 116.638 18.721C118.832 18.721 121.171 20.4164 121.171 24.4924H111.889Z" fill="white"/>
<path fill-rule="evenodd" clip-rule="evenodd" d="M89.0432 11.3986C85.5174 11.3986 83.2508 13.0578 81.9916 14.2121L81.5239 11.9757H73.6089V54.0348L82.6033 52.123L82.6392 41.9148C83.9344 42.8527 85.8412 44.1873 89.0072 44.1873C95.4472 44.1873 101.312 38.9931 101.312 27.5585C101.276 17.0978 95.3393 11.3986 89.0432 11.3986ZM86.8846 36.2516C84.7619 36.2516 83.5027 35.4942 82.6392 34.5563L82.6033 21.1739C83.5387 20.1278 84.8339 19.4064 86.8846 19.4064C90.1585 19.4064 92.4251 23.0856 92.4251 27.811C92.4251 32.6445 90.1945 36.2516 86.8846 36.2516Z" fill="white"/>
<path fill-rule="evenodd" clip-rule="evenodd" d="M61.2327 9.27031L70.263 7.32246V0L61.2327 1.91178V9.27031Z" fill="white"/>
<path d="M70.263 12.0118H61.2327V43.5741H70.263V12.0118Z" fill="white"/>
<path fill-rule="evenodd" clip-rule="evenodd" d="M51.5545 14.681L50.9789 12.0118H43.2078V43.5741H52.2021V22.1839C54.3248 19.4064 57.9225 19.9114 59.0378 20.3082V12.0118C57.8866 11.5789 53.6772 10.7853 51.5545 14.681Z" fill="white"/>
<path fill-rule="evenodd" clip-rule="evenodd" d="M33.5657 4.18427L24.7872 6.05997L24.7512 34.953C24.7512 40.2916 28.7447 44.2234 34.0694 44.2234C37.0195 44.2234 39.1782 43.6823 40.3654 43.033V35.7105C39.2142 36.1795 33.5297 37.8387 33.5297 32.5002V19.6949H40.3654V12.0117H33.5297L33.5657 4.18427Z" fill="white"/>
<path fill-rule="evenodd" clip-rule="evenodd" d="M9.24512 21.1739C9.24512 19.7671 10.3964 19.226 12.3032 19.226C15.0375 19.226 18.4913 20.0557 21.2256 21.5346V13.0578C18.2395 11.8675 15.2893 11.3986 12.3032 11.3986C4.99978 11.3986 0.142822 15.2221 0.142822 21.6067C0.142822 31.5624 13.8143 29.9752 13.8143 34.2677C13.8143 35.927 12.3752 36.4681 10.3604 36.4681C7.37429 36.4681 3.56068 35.2416 0.538574 33.5824V42.1673C3.88448 43.6102 7.26636 44.2234 10.3604 44.2234C17.8437 44.2234 22.9885 40.508 22.9885 34.0513C22.9525 23.3021 9.24512 25.2138 9.24512 21.1739Z" fill="white"/>
</svg>
