<svg width="23" height="23" viewBox="0 0 33 26" fill="none" xmlns="http://www.w3.org/2000/svg">
<path d="M28.8888 6.44366C28.9082 6.72421 28.9082 7.00475 28.9082 7.28788C28.9082 15.9149 22.3533 25.8645 10.3675 25.8645V25.8593C6.82689 25.8645 3.3598 24.8483 0.37915 22.9324C0.893989 22.9944 1.41141 23.0254 1.93012 23.0267C4.86431 23.0293 7.71463 22.0429 10.023 20.2265C7.23463 20.1735 4.78947 18.3519 3.93528 15.6925C4.91205 15.8813 5.91851 15.8425 6.87721 15.5801C3.83721 14.9647 1.65012 12.2885 1.65012 9.18057C1.65012 9.15213 1.65012 9.12498 1.65012 9.09783C2.55592 9.60333 3.57012 9.88387 4.60754 9.9149C1.74431 7.99764 0.861731 4.18122 2.59076 1.19738C5.89915 5.27624 10.7804 7.75588 16.0204 8.01832C15.4953 5.75071 16.2127 3.3745 17.9056 1.78044C20.5301 -0.691439 24.6579 -0.564742 27.125 2.06357C28.5843 1.77527 29.983 1.23875 31.263 0.478568C30.7766 1.98988 29.7585 3.27366 28.3985 4.08943C29.6901 3.93687 30.9521 3.5904 32.1404 3.06163C31.2656 4.37514 30.1637 5.51929 28.8888 6.44366Z" fill="#2A2A2B"/>
</svg>
